<svg width="26" height="24" viewBox="0 0 26 24" fill="none" xmlns="http://www.w3.org/2000/svg">
<path d="M8.91407 20.27L23.9551 12.066C24.0071 12.038 24.0071 11.963 23.9551 11.934L8.91407 3.72997C8.80832 3.67219 8.68762 3.64759 8.56769 3.65937C8.44776 3.67116 8.33416 3.71878 8.24168 3.79605C8.1492 3.87331 8.08212 3.97663 8.0492 4.09256C8.01627 4.20848 8.01901 4.33163 8.05707 4.44597L8.67707 6.30697C9.13907 7.69397 9.42807 9.12297 9.54307 10.563L16.9521 11.573C17.0543 11.5879 17.1477 11.6391 17.2153 11.7172C17.2828 11.7953 17.32 11.8952 17.32 11.9985C17.32 12.1018 17.2828 12.2016 17.2153 12.2797C17.1477 12.3579 17.0543 12.4091 16.9521 12.424L9.54307 13.434C9.42724 14.8824 9.13646 16.3115 8.67707 17.69L8.05707 19.551C8.01901 19.6653 8.01627 19.7885 8.0492 19.9044C8.08212 20.0203 8.1492 20.1236 8.24168 20.2009C8.33416 20.2782 8.44776 20.3258 8.56769 20.3376C8.68762 20.3494 8.80832 20.3248 8.91407 20.267V20.27Z" fill="#04B70A"/>
</svg>
