<svg width="35" height="40" viewBox="0 0 35 40" fill="none" xmlns="http://www.w3.org/2000/svg">
<path fill-rule="evenodd" clip-rule="evenodd" d="M17.5 0C11.5763 0 6.77419 4.14956 6.77419 9.26829C6.77419 14.387 11.5763 18.5366 17.5 18.5366C23.4237 18.5366 28.2258 14.387 28.2258 9.26829C28.2258 4.14956 23.4237 0 17.5 0ZM10.1613 9.26829C10.1613 5.766 13.4469 2.92683 17.5 2.92683C21.5531 2.92683 24.8387 5.766 24.8387 9.26829C24.8387 12.7706 21.5531 15.6098 17.5 15.6098C13.4469 15.6098 10.1613 12.7706 10.1613 9.26829Z" fill="black"/>
<path fill-rule="evenodd" clip-rule="evenodd" d="M10.7258 21.4634C4.80211 21.4634 0 25.613 0 30.7317C0 35.8504 4.80211 40 10.7258 40H24.2742C30.1979 40 35 35.8504 35 30.7317C35 25.613 30.1979 21.4634 24.2742 21.4634H10.7258ZM3.3871 30.7317C3.3871 27.2294 6.67275 24.3902 10.7258 24.3902H24.2742C28.3273 24.3902 31.6129 27.2294 31.6129 30.7317C31.6129 34.234 28.3273 37.0732 24.2742 37.0732H10.7258C6.67275 37.0732 3.3871 34.234 3.3871 30.7317Z" fill="black"/>
</svg>
