<svg width="48" height="40" viewBox="0 0 48 40" fill="none" xmlns="http://www.w3.org/2000/svg">
<path fill-rule="evenodd" clip-rule="evenodd" d="M24 0C19.7697 0 16.3404 4.07014 16.3404 9.09091C16.3404 14.1117 19.7697 18.1818 24 18.1818C28.2303 18.1818 31.6596 14.1117 31.6596 9.09091C31.6596 4.07014 28.2303 0 24 0ZM19.4043 9.09091C19.4043 6.07845 21.4618 3.63636 24 3.63636C26.5382 3.63636 28.5957 6.07845 28.5957 9.09091C28.5957 12.1034 26.5382 14.5455 24 14.5455C21.4618 14.5455 19.4043 12.1034 19.4043 9.09091Z" fill="black"/>
<path fill-rule="evenodd" clip-rule="evenodd" d="M17.8723 21.8182C13.6421 21.8182 10.2128 25.8883 10.2128 30.9091C10.2128 35.9299 13.6421 40 17.8723 40H30.1277C34.3579 40 37.7872 35.9299 37.7872 30.9091C37.7872 25.8883 34.3579 21.8182 30.1277 21.8182H17.8723ZM13.2766 30.9091C13.2766 27.8966 15.3342 25.4545 17.8723 25.4545H30.1277C32.6658 25.4545 34.7234 27.8966 34.7234 30.9091C34.7234 33.9216 32.6658 36.3636 30.1277 36.3636H17.8723C15.3342 36.3636 13.2766 33.9216 13.2766 30.9091Z" fill="black"/>
<path d="M15.3235 15.4876C15.0014 14.8734 14.3969 14.5455 13.7872 14.5455C11.2491 14.5455 9.19149 12.1034 9.19149 9.09091C9.19149 6.07845 11.2491 3.63636 13.7872 3.63636C14.3969 3.63636 15.0014 3.30843 15.3235 2.69417C15.3378 2.66701 15.3521 2.63991 15.3665 2.61289C15.9029 1.60802 15.6311 0.185214 14.6349 0.0550382C14.3566 0.0186691 14.0737 0 13.7872 0C9.55697 0 6.12766 4.07014 6.12766 9.09091C6.12766 14.1117 9.55697 18.1818 13.7872 18.1818C14.0737 18.1818 14.3566 18.1632 14.6349 18.1268C15.6311 17.9966 15.9029 16.5738 15.3665 15.5689C15.3521 15.5419 15.3378 15.5148 15.3235 15.4876Z" fill="black"/>
<path d="M9.10629 34.7076C8.87442 34.2484 8.46515 33.9394 8.01414 33.9394H7.65957C5.12142 33.9394 3.06383 31.4973 3.06383 28.4848C3.06383 25.4724 5.12142 23.0303 7.65957 23.0303H8.01414C8.46515 23.0303 8.87442 22.7213 9.10629 22.2621C9.67229 21.1414 9.05808 19.3939 7.95716 19.3939H7.65957C3.42931 19.3939 0 23.4641 0 28.4848C0 33.5056 3.42931 37.5758 7.65957 37.5758H7.95716C9.05808 37.5758 9.67229 35.8283 9.10629 34.7076Z" fill="black"/>
<path d="M32.6335 15.5689C32.0971 16.5738 32.3689 17.9966 33.3651 18.1268C33.6434 18.1631 33.9263 18.1818 34.2128 18.1818C38.443 18.1818 41.8723 14.1117 41.8723 9.09091C41.8723 4.07014 38.443 0 34.2128 0C33.9263 0 33.6434 0.0186692 33.3651 0.0550385C32.3689 0.185214 32.0971 1.60802 32.6335 2.61289C32.6479 2.63991 32.6622 2.667 32.6765 2.69417C32.9986 3.30842 33.6031 3.63636 34.2128 3.63636C36.7509 3.63636 38.8085 6.07845 38.8085 9.09091C38.8085 12.1034 36.7509 14.5455 34.2128 14.5455C33.6031 14.5455 32.9986 14.8734 32.6765 15.4876C32.6622 15.5148 32.6479 15.5419 32.6335 15.5689Z" fill="black"/>
<path d="M38.8937 34.7076C38.3277 35.8283 38.9419 37.5758 40.0428 37.5758H40.3404C44.5707 37.5758 48 33.5056 48 28.4848C48 23.4641 44.5707 19.3939 40.3404 19.3939H40.0428C38.9419 19.3939 38.3277 21.1414 38.8937 22.2621C39.1256 22.7213 39.5349 23.0303 39.9859 23.0303H40.3404C42.8786 23.0303 44.9362 25.4724 44.9362 28.4848C44.9362 31.4973 42.8786 33.9394 40.3404 33.9394H39.9859C39.5349 33.9394 39.1256 34.2484 38.8937 34.7076Z" fill="black"/>
</svg>
