<svg width="149" height="50" viewBox="0 0 149 50" fill="none" xmlns="http://www.w3.org/2000/svg">
<rect width="149" height="50" rx="16" fill="#FFF"/>
<path d="M51.504 31V19.8H53.584V29.24H59.44V31H51.504ZM66.127 31.16C65.2523 31.16 64.447 31.016 63.711 30.728C62.975 30.44 62.335 30.04 61.791 29.528C61.247 29.0053 60.8257 28.3973 60.527 27.704C60.2283 27 60.079 26.232 60.079 25.4C60.079 24.568 60.2283 23.8053 60.527 23.112C60.8257 22.408 61.247 21.8 61.791 21.288C62.335 20.7653 62.975 20.36 63.711 20.072C64.447 19.784 65.247 19.64 66.111 19.64C66.9857 19.64 67.7857 19.784 68.511 20.072C69.247 20.36 69.887 20.7653 70.431 21.288C70.975 21.8 71.3963 22.408 71.695 23.112C71.9937 23.8053 72.143 24.568 72.143 25.4C72.143 26.232 71.9937 27 71.695 27.704C71.3963 28.408 70.975 29.016 70.431 29.528C69.887 30.04 69.247 30.44 68.511 30.728C67.7857 31.016 66.991 31.16 66.127 31.16ZM66.111 29.336C66.6763 29.336 67.199 29.24 67.679 29.048C68.159 28.856 68.575 28.584 68.927 28.232C69.279 27.8693 69.551 27.4533 69.743 26.984C69.9457 26.504 70.047 25.976 70.047 25.4C70.047 24.824 69.9457 24.3013 69.743 23.832C69.551 23.352 69.279 22.936 68.927 22.584C68.575 22.2213 68.159 21.944 67.679 21.752C67.199 21.56 66.6763 21.464 66.111 21.464C65.5457 21.464 65.023 21.56 64.543 21.752C64.0737 21.944 63.6577 22.2213 63.295 22.584C62.943 22.936 62.6657 23.352 62.463 23.832C62.271 24.3013 62.175 24.824 62.175 25.4C62.175 25.9653 62.271 26.488 62.463 26.968C62.6657 27.448 62.943 27.8693 63.295 28.232C63.647 28.584 64.063 28.856 64.543 29.048C65.023 29.24 65.5457 29.336 66.111 29.336ZM79.5798 31.16C78.7051 31.16 77.8998 31.0213 77.1638 30.744C76.4384 30.456 75.8038 30.056 75.2598 29.544C74.7158 29.0213 74.2944 28.408 73.9958 27.704C73.6971 27 73.5478 26.232 73.5478 25.4C73.5478 24.568 73.6971 23.8 73.9958 23.096C74.2944 22.392 74.7158 21.784 75.2598 21.272C75.8144 20.7493 76.4598 20.3493 77.1958 20.072C77.9318 19.784 78.7371 19.64 79.6118 19.64C80.5611 19.64 81.4144 19.7947 82.1718 20.104C82.9398 20.4133 83.5851 20.8667 84.1078 21.464L82.7958 22.744C82.3584 22.3067 81.8838 21.9867 81.3718 21.784C80.8704 21.5707 80.3158 21.464 79.7078 21.464C79.1211 21.464 78.5771 21.56 78.0758 21.752C77.5744 21.944 77.1424 22.216 76.7798 22.568C76.4171 22.92 76.1344 23.336 75.9318 23.816C75.7398 24.296 75.6438 24.824 75.6438 25.4C75.6438 25.9653 75.7398 26.488 75.9318 26.968C76.1344 27.448 76.4171 27.8693 76.7798 28.232C77.1424 28.584 77.5691 28.856 78.0598 29.048C78.5504 29.24 79.0944 29.336 79.6918 29.336C80.2464 29.336 80.7798 29.2507 81.2917 29.08C81.8144 28.8987 82.3104 28.6 82.7798 28.184L83.9638 29.736C83.3771 30.2053 82.6944 30.5627 81.9158 30.808C81.1478 31.0427 80.3691 31.16 79.5798 31.16ZM81.9958 29.464V25.272H83.9638V29.736L81.9958 29.464ZM91.9551 31.16C91.0805 31.16 90.2751 31.016 89.5391 30.728C88.8031 30.44 88.1631 30.04 87.6191 29.528C87.0751 29.0053 86.6538 28.3973 86.3551 27.704C86.0565 27 85.9071 26.232 85.9071 25.4C85.9071 24.568 86.0565 23.8053 86.3551 23.112C86.6538 22.408 87.0751 21.8 87.6191 21.288C88.1631 20.7653 88.8031 20.36 89.5391 20.072C90.2751 19.784 91.0751 19.64 91.9391 19.64C92.8138 19.64 93.6138 19.784 94.3391 20.072C95.0751 20.36 95.7151 20.7653 96.2591 21.288C96.8031 21.8 97.2245 22.408 97.5231 23.112C97.8218 23.8053 97.9711 24.568 97.9711 25.4C97.9711 26.232 97.8218 27 97.5231 27.704C97.2245 28.408 96.8031 29.016 96.2591 29.528C95.7151 30.04 95.0751 30.44 94.3391 30.728C93.6138 31.016 92.8191 31.16 91.9551 31.16ZM91.9391 29.336C92.5045 29.336 93.0271 29.24 93.5071 29.048C93.9871 28.856 94.4031 28.584 94.7551 28.232C95.1071 27.8693 95.3791 27.4533 95.5711 26.984C95.7738 26.504 95.8751 25.976 95.8751 25.4C95.8751 24.824 95.7738 24.3013 95.5711 23.832C95.3791 23.352 95.1071 22.936 94.7551 22.584C94.4031 22.2213 93.9871 21.944 93.5071 21.752C93.0271 21.56 92.5045 21.464 91.9391 21.464C91.3738 21.464 90.8511 21.56 90.3711 21.752C89.9018 21.944 89.4858 22.2213 89.1231 22.584C88.7711 22.936 88.4938 23.352 88.2911 23.832C88.0991 24.3013 88.0031 24.824 88.0031 25.4C88.0031 25.9653 88.0991 26.488 88.2911 26.968C88.4938 27.448 88.7711 27.8693 89.1231 28.232C89.4751 28.584 89.8911 28.856 90.3711 29.048C90.8511 29.24 91.3738 29.336 91.9391 29.336Z" fill="black"/>
</svg>
